<?xml version="1.0" encoding="utf-8"?>
<!-- Generator: Adobe Illustrator 16.0.4, SVG Export Plug-In . SVG Version: 6.00 Build 0)  -->
<!DOCTYPE svg PUBLIC "-//W3C//DTD SVG 1.1//EN" "http://www.w3.org/Graphics/SVG/1.1/DTD/svg11.dtd">
<svg version="1.1" xmlns="http://www.w3.org/2000/svg" xmlns:xlink="http://www.w3.org/1999/xlink" x="0px" y="0px" width="170px"
	 height="170px" viewBox="0 0 170 170" enable-background="new 0 0 170 170" xml:space="preserve">
<g id="BNackground" display="none">
	<rect x="0.066" y="0.041" display="inline" fill="#606060" width="169.674" height="170"/>
</g>
<g id="Layer_1">
</g>
<g id="Layer_2">
	<g display="none">
		
			<line display="inline" fill="none" stroke="#377ABC" stroke-width="0.25" stroke-miterlimit="10" x1="37.885" y1="18.053" x2="37.885" y2="145.817"/>
		
			<line display="inline" fill="none" stroke="#377ABC" stroke-width="0.25" stroke-miterlimit="10" x1="131.766" y1="18.053" x2="131.766" y2="145.817"/>
	</g>
	<g>
		<g>
			<polygon fill="#FFFFFF" points="65.306,21.521 37.682,39.558 56.781,54.853 84.635,37.654 			"/>
			<polygon fill="#FFFFFF" points="37.682,70.149 65.306,88.186 84.635,72.052 56.781,54.853 			"/>
			<polygon fill="#FFFFFF" points="84.635,72.052 103.965,88.186 131.589,70.149 112.488,54.853 			"/>
			<polygon fill="#FFFFFF" points="131.589,39.558 103.965,21.521 84.635,37.654 112.488,54.853 			"/>
			<polygon fill="#FFFFFF" points="84.691,75.523 65.306,91.61 57.01,86.192 57.01,92.265 84.691,108.866 112.374,92.265 
				112.374,86.192 104.079,91.61 			"/>
		</g>
		<g>
			<path fill="#FFFFFF" d="M38.088,137.097h5.685c1.657,0,3.995,0,5.912-1.491c2.339-1.783,3.541-5.414,3.541-9.467
				c0-10.634-6.725-10.667-10.038-10.667h-5.1V137.097z M42.831,119.2h0.811c1.917,0,4.549,0.229,4.549,6.873
				c0,7.068-2.664,7.295-4.549,7.295h-0.811V119.2z"/>
			<path fill="#FFFFFF" d="M54.858,121.113v15.983h4.45v-6.905c0-1.232,0-4.929,3.28-4.929c0.162,0,0.357,0,0.746,0.066v-4.346
				c-0.227-0.064-0.453-0.098-0.779-0.098c-2.598,0-3.378,2.725-3.768,4.086v-3.858H54.858z"/>
			<path fill="#FFFFFF" d="M70.471,120.757c-4.775,0-6.528,3.34-6.528,8.332c0,5.154,1.882,8.332,6.496,8.332
				c4.678,0,6.528-3.209,6.528-8.332C76.967,124.097,75.214,120.757,70.471,120.757z M70.471,123.869
				c1.365,0,1.885,1.103,1.885,5.22c0,4.279-0.586,5.221-1.885,5.221c-1.333,0-1.917-0.974-1.917-5.221
				c0-3.922,0.455-5.22,1.885-5.22H70.471z"/>
			<path fill="#FFFFFF" d="M78.287,121.113v21.397h4.385v-6.58c0.488,0.518,1.3,1.393,3.054,1.393c5.1,0,5.425-6.16,5.425-8.43
				c0-2.689-0.52-5.187-2.078-6.775c-0.779-0.777-1.982-1.232-3.054-1.232c-2.176,0-3.054,1.589-3.606,2.627v-2.399H78.287z
				 M82.672,127.532c0-1.426,0-3.695,2.014-3.695c1.723,0,1.853,2.236,1.853,5.057c0,3.373-0.162,5.35-1.981,5.35
				c-1.885,0-1.885-1.361-1.885-3.663V127.532z"/>
			<path fill="#FFFFFF" d="M92.476,115.472v21.625h2.632c0.357-1.135,0.52-1.459,0.846-2.074c0.389,0.81,1.136,2.398,3.703,2.398
				c0.844,0,1.722-0.162,2.598-0.615c2.925-1.523,3.119-6.322,3.119-7.814c0-3.857-1.234-8.105-5.166-8.105
				c-1.916,0-2.791,1.039-3.346,1.719v-7.133H92.476z M96.861,126.755c0-0.811,0-1.621,0.521-2.238c0.325-0.42,0.845-0.68,1.43-0.68
				c1.267,0,1.948,1.07,1.948,5.285c0,4.117-0.616,5.219-2.014,5.219c-1.885,0-1.885-2.074-1.885-3.891V126.755z"/>
			<path fill="#FFFFFF" d="M113.02,120.757c-4.775,0-6.529,3.34-6.529,8.332c0,5.154,1.885,8.332,6.498,8.332
				c4.676,0,6.528-3.209,6.528-8.332C119.517,124.097,117.762,120.757,113.02,120.757z M113.02,123.869
				c1.364,0,1.885,1.103,1.885,5.22c0,4.279-0.585,5.221-1.885,5.221c-1.332,0-1.917-0.974-1.917-5.221
				c0-3.922,0.456-5.22,1.886-5.22H113.02z"/>
			<path fill="#FFFFFF" d="M119.343,121.113l4.127,7.813l-4.742,8.17h3.864l2.697-4.797l2.338,4.797h4.841l-4.775-8.947l4.124-7.036
				h-3.864l-2.047,3.696l-1.722-3.696H119.343z"/>
		</g>
	</g>
</g>
</svg>
